<svg id="Layer_1" data-name="Layer 1" xmlns="http://www.w3.org/2000/svg" viewBox="0 0 842 595">
  <title>Challenge18LogoFriendlyAI</title>
  <path d="M477,208.23c83.88,3,85.41-58.27,77.78-69.34-25.93,25.08-84.06,32.75-84.06,32.75h0a96.45,96.45,0,1,0-159,0S251.32,164,225.4,138.89c-7.63,11.07-6.1,72.29,77.78,69.34-25.93,8.85-52.72,24.12-54.25,89.77,31.53-26.63,41.52-45.76,70.64-53.25,24-6.17,36.22-17.47,74.53-15.56,29.59,1.48,50.75,2.11,69.36,11.27,22.05,10.84,40.81,25.3,72.62,59.28C534.56,234.09,503,217.08,477,208.23Z" fill="#d8411e"/>
  <g>
    <ellipse cx="362.65" cy="102.57" rx="17.54" ry="17.52" fill="#fff"/>
    <g>
      <ellipse cx="362.27" cy="103.12" rx="12.58" ry="12.91" fill="#333"/>
      <ellipse cx="359.6" cy="100.36" rx="4.58" ry="4.24" fill="#fff"/>
      <ellipse cx="368.37" cy="107.36" rx="2.6" ry="2.46" transform="translate(82.34 363.12) rotate(-58.05)" fill="#fff"/>
    </g>
  </g>
  <g>
    <ellipse cx="415.27" cy="102.57" rx="17.54" ry="17.52" fill="#fff"/>
    <g>
      <ellipse cx="414.89" cy="103.12" rx="12.58" ry="12.91" fill="#333"/>
      <ellipse cx="412.22" cy="100.36" rx="4.58" ry="4.24" fill="#fff"/>
      <ellipse cx="420.99" cy="107.36" rx="2.6" ry="2.46" transform="matrix(0.53, -0.85, 0.85, 0.53, 107.11, 407.76)" fill="#fff"/>
    </g>
  </g>
  <path d="M375.7,137.37a19,19,0,0,0,7.23,4.45,24.1,24.1,0,0,0,4,.91c.68.1,1.37.15,2.06.23s1.39,0,2.08,0a22.2,22.2,0,0,0,4.08-.37,18.9,18.9,0,0,0,10.88-6l.18.08a15.36,15.36,0,0,1-6.41,6.19,19.81,19.81,0,0,1-8.72,2.08,21.58,21.58,0,0,1-8.79-1.73,15.06,15.06,0,0,1-6.76-5.79Z" fill="#333"/>
  <path d="M568.92,412.58c.76,64.57-36.6,89.73-49.84,93.31s-110-5.51-122.27,8.4c-23.36,26.44-89.92,70.73-88.05,65.23,14.85-43.67-82.09-65.9-90.78-166.94-9-104.5,78.56-190,175.47-190S567.61,301.58,568.92,412.58Z" fill="#65c8d0"/>
  <g opacity="0.52">
    <path d="M318.79,73.85A54.79,54.79,0,0,1,346.62,47.9c1.76-.73,1-3.63-.8-2.89A57.86,57.86,0,0,0,316.2,72.34c-.87,1.71,1.71,3.23,2.59,1.51Z" fill="#fff"/>
  </g>
  <text transform="translate(299.55 376.79)" font-size="67.9" fill="#333" font-family="BebasNeue-Regular, Bebas Neue">Friend<tspan x="144.96" y="0" letter-spacing="-0.09em">l</tspan><tspan x="162.35" y="0">y</tspan><tspan x="74.42" y="81.48">AI</tspan></text>
  <line x1="426.32" y1="434.2" x2="528.3" y2="434.2" fill="#9fe0e2" stroke="#9fe0e2" stroke-miterlimit="10" stroke-width="3"/>
  <line x1="526.74" y1="434.22" x2="526.74" y2="401.97" fill="#9fe0e2" stroke="#9fe0e2" stroke-miterlimit="10" stroke-width="3"/>
  <line x1="481.94" y1="434.2" x2="481.94" y2="466.45" fill="#9fe0e2" stroke="#9fe0e2" stroke-miterlimit="10" stroke-width="3"/>
  <ellipse cx="482.04" cy="471.16" rx="7.87" ry="7.64" fill="#9fe0e2" stroke="#9fe0e2" stroke-miterlimit="10"/>
  <ellipse cx="526.74" cy="396.88" rx="7.87" ry="7.64" fill="#9fe0e2" stroke="#9fe0e2" stroke-miterlimit="10"/>
  <line x1="526.74" y1="433.23" x2="526.74" y2="465.49" fill="#9fe0e2" stroke="#9fe0e2" stroke-miterlimit="10" stroke-width="3"/>
  <ellipse cx="526.74" cy="470.58" rx="7.87" ry="7.64" fill="#9fe0e2" stroke="#9fe0e2" stroke-miterlimit="10"/>
  <line x1="264.19" y1="412.27" x2="366.16" y2="412.27" fill="#9fe0e2" stroke="#9fe0e2" stroke-miterlimit="10" stroke-width="3"/>
  <line x1="264.99" y1="411.32" x2="264.99" y2="443.57" fill="#9fe0e2" stroke="#9fe0e2" stroke-miterlimit="10" stroke-width="3"/>
  <ellipse cx="264.99" cy="448.66" rx="7.87" ry="7.64" fill="#9fe0e2" stroke="#9fe0e2" stroke-miterlimit="10"/>
  <line x1="347.39" y1="413.14" x2="347.39" y2="494.6" fill="#9fe0e2" stroke="#9fe0e2" stroke-miterlimit="10" stroke-width="3"/>
  <ellipse cx="293.64" cy="492.87" rx="7.87" ry="7.64" fill="#9fe0e2" stroke="#9fe0e2" stroke-miterlimit="10"/>
  <line x1="296.98" y1="493.37" x2="348.78" y2="493.37" fill="#9fe0e2" stroke="#9fe0e2" stroke-miterlimit="10" stroke-width="3"/>
  <line x1="325.75" y1="494.13" x2="325.75" y2="526.39" fill="#9fe0e2" stroke="#9fe0e2" stroke-miterlimit="10" stroke-width="3"/>
  <ellipse cx="325.84" cy="531.1" rx="7.87" ry="7.64" fill="#9fe0e2" stroke="#9fe0e2" stroke-miterlimit="10"/>
  <line x1="311.79" y1="414.5" x2="311.79" y2="455.41" fill="#9fe0e2" stroke="#9fe0e2" stroke-miterlimit="10" stroke-width="3"/>
  <ellipse cx="311.88" cy="462.47" rx="7.87" ry="7.64" fill="#9fe0e2" stroke="#9fe0e2" stroke-miterlimit="10"/>
  <line x1="447.14" y1="434.52" x2="447.14" y2="411.45" fill="#9fe0e2" stroke="#9fe0e2" stroke-miterlimit="10" stroke-width="3"/>
  <ellipse cx="446.76" cy="405.86" rx="7.87" ry="7.64" fill="#9fe0e2" stroke="#9fe0e2" stroke-miterlimit="10"/>
  <line x1="436.24" y1="435.35" x2="436.24" y2="477.99" fill="#9fe0e2" stroke="#9fe0e2" stroke-miterlimit="10" stroke-width="3"/>
  <ellipse cx="436.33" cy="484.05" rx="7.87" ry="7.64" fill="#9fe0e2" stroke="#9fe0e2" stroke-miterlimit="10"/>
  <line x1="350.72" y1="283.5" x2="350.72" y2="320" fill="#9fe0e2" stroke="#9fe0e2" stroke-miterlimit="10" stroke-width="3"/>
  <line x1="284.54" y1="285.04" x2="392.26" y2="285.04" fill="#9fe0e2" stroke="#9fe0e2" stroke-miterlimit="10" stroke-width="3"/>
  <ellipse cx="286.02" cy="285.49" rx="7.87" ry="7.64" fill="#9fe0e2" stroke="#9fe0e2" stroke-miterlimit="10"/>
  <line x1="390.92" y1="285.39" x2="390.92" y2="252.01" fill="#9fe0e2" stroke="#9fe0e2" stroke-miterlimit="10" stroke-width="3"/>
  <ellipse cx="391.02" cy="244.63" rx="7.87" ry="7.64" fill="#9fe0e2" stroke="#9fe0e2" stroke-miterlimit="10"/>
  <line x1="424" y1="310.39" x2="424" y2="278.13" fill="#9fe0e2" stroke="#9fe0e2" stroke-miterlimit="10" stroke-width="3"/>
  <ellipse cx="424" cy="273.04" rx="7.87" ry="7.64" fill="#9fe0e2" stroke="#9fe0e2" stroke-miterlimit="10"/>
  <line x1="424.4" y1="308.89" x2="510.46" y2="308.89" fill="#9fe0e2" stroke="#9fe0e2" stroke-miterlimit="10" stroke-width="3"/>
  <ellipse cx="515.02" cy="309.19" rx="7.87" ry="7.64" fill="#9fe0e2" stroke="#9fe0e2" stroke-miterlimit="10"/>
</svg>
