<svg id="Layer_1" data-name="Layer 1" xmlns="http://www.w3.org/2000/svg" viewBox="0 0 842 595">
  <title>Challenge18LogoSongsAndValues</title>
  <path d="M499.74,208.23c83.87,3,85.4-58.27,77.77-69.34-25.92,25.08-84.06,32.75-84.06,32.75h0a96.46,96.46,0,1,0-159,0S274,164,248.1,138.89c-7.63,11.07-6.1,72.29,77.78,69.34C300,217.08,273.16,232.35,271.64,298c31.52-26.63,41.51-45.76,70.64-53.25,24-6.17,36.22-17.47,74.53-15.56,29.59,1.48,50.74,2.11,69.35,11.27,22.06,10.84,40.81,25.3,72.63,59.28C557.26,234.09,525.66,217.08,499.74,208.23Z" fill="#d8411e"/>
  <path d="M275.39,493.86c.38-.59,3.37-2.64,2.25,1.32C276.57,498.93,273.23,497.17,275.39,493.86Z" fill="#bee86e"/>
  <g>
    <ellipse cx="385.36" cy="102.57" rx="17.54" ry="17.52" fill="#fff"/>
    <g>
      <ellipse cx="384.97" cy="103.12" rx="12.58" ry="12.91" fill="#333"/>
      <ellipse cx="382.31" cy="100.36" rx="4.58" ry="4.24" fill="#fff"/>
      <ellipse cx="391.07" cy="107.36" rx="2.6" ry="2.46" transform="translate(93.03 382.38) rotate(-58.05)" fill="#fff"/>
    </g>
  </g>
  <g>
    <ellipse cx="437.97" cy="102.57" rx="17.54" ry="17.52" fill="#fff"/>
    <g>
      <ellipse cx="437.59" cy="103.12" rx="12.58" ry="12.91" fill="#333"/>
      <ellipse cx="434.92" cy="100.36" rx="4.58" ry="4.24" fill="#fff"/>
      <ellipse cx="443.69" cy="107.36" rx="2.6" ry="2.46" transform="translate(117.8 427.03) rotate(-58.05)" fill="#fff"/>
    </g>
  </g>
  <path d="M398.41,137.37a18.84,18.84,0,0,0,7.22,4.45,24,24,0,0,0,4,.91c.68.1,1.37.15,2.05.23s1.39,0,2.08,0a22.12,22.12,0,0,0,4.08-.37,19.51,19.51,0,0,0,3.93-1.11,19.13,19.13,0,0,0,7-4.87l.18.08a15.3,15.3,0,0,1-6.41,6.19,19.8,19.8,0,0,1-8.71,2.08,21.6,21.6,0,0,1-8.8-1.73,15.12,15.12,0,0,1-6.76-5.79Z" fill="#333"/>
  <ellipse cx="413.37" cy="395.4" rx="172.7" ry="172.85" fill="#c3c6c8"/>
  <path d="M265.66,484.84l103.19-67.51,21.4,21.47-81.66,93.5C291.32,519.31,276.91,502.51,265.66,484.84Z" fill="#dcddde"/>
  <g opacity="0.52">
    <path d="M341.5,73.85A54.73,54.73,0,0,1,369.32,47.9c1.76-.73,1-3.63-.79-2.89a57.82,57.82,0,0,0-29.62,27.33c-.88,1.71,1.71,3.23,2.59,1.51Z" fill="#fff"/>
  </g>
  <path d="M327.4,544.33a171.58,171.58,0,0,0,25.94,12.29l63.47-106.44L400.07,444Z" fill="#dcddde"/>
  <path d="M311.37,255.81c-6.94,6.53-17.37,13.66-23.21,21.35L374,368.44l10.73-14.27Z" fill="#dcddde"/>
  <path d="M563.14,309.42l-100.52,59.3,8.74,27.59L583.5,366.24A171.79,171.79,0,0,0,563.14,309.42Z" fill="#dcddde"/>
  <ellipse cx="416.81" cy="396.31" rx="54.56" ry="53.87" fill="#a4a9ad"/>
  <ellipse cx="416.98" cy="396.9" rx="43.65" ry="43.81" fill="#5d6670"/>
  <ellipse cx="417.04" cy="397.06" rx="33.72" ry="35.19" fill="#fff"/>
  <text transform="translate(340.34 330.79)" font-size="76.9" fill="#333" font-family="BebasNeue-Regular, Bebas Neue">Songs<tspan x="59.4" y="92.27">&amp;</tspan><tspan x="-10.61" y="184.55" letter-spacing="-0.03em">V</tspan><tspan x="16.61" y="184.55" letter-spacing="0em">alu</tspan><tspan x="104.81" y="184.55" letter-spacing="0em">e</tspan><tspan x="132.87" y="184.55">s</tspan></text>
</svg>
