<svg id="Layer_1" data-name="Layer 1" xmlns="http://www.w3.org/2000/svg" viewBox="0 0 842 595">
  <title>Challenge18LogoSDGs</title>
  <g>
    <path d="M477,208.23c83.88,3,85.41-58.27,77.78-69.34-25.93,25.08-84.06,32.75-84.06,32.75h0a96.45,96.45,0,1,0-159,0S251.32,164,225.4,138.89c-7.63,11.07-6.1,72.29,77.78,69.34-25.93,8.85-52.72,24.12-54.25,89.77,31.53-26.63,41.52-45.76,70.64-53.25,24-6.17,36.22-17.47,74.53-15.56,29.59,1.48,50.75,2.11,69.36,11.27,22.05,10.84,41.81,25.3,73.62,59.28C535.56,234.09,503,217.08,477,208.23Z" fill="#d8411e"/>
    <path d="M252.69,493.86c.38-.59,3.37-2.64,2.24,1.32C253.87,498.93,250.53,497.17,252.69,493.86Z" fill="#bee86e"/>
    <g>
      <ellipse cx="362.65" cy="102.57" rx="17.54" ry="17.52" fill="#fff"/>
      <g>
        <ellipse cx="362.27" cy="103.12" rx="12.58" ry="12.91" fill="#333"/>
        <ellipse cx="359.6" cy="100.36" rx="4.58" ry="4.24" fill="#fff"/>
        <ellipse cx="368.37" cy="107.36" rx="2.6" ry="2.46" transform="translate(82.34 363.12) rotate(-58.05)" fill="#fff"/>
      </g>
    </g>
    <g>
      <ellipse cx="415.27" cy="102.57" rx="17.54" ry="17.52" fill="#fff"/>
      <g>
        <ellipse cx="414.89" cy="103.12" rx="12.58" ry="12.91" fill="#333"/>
        <ellipse cx="412.22" cy="100.36" rx="4.58" ry="4.24" fill="#fff"/>
        <ellipse cx="420.99" cy="107.36" rx="2.6" ry="2.46" transform="matrix(0.53, -0.85, 0.85, 0.53, 107.11, 407.76)" fill="#fff"/>
      </g>
    </g>
    <path d="M375.7,137.37a19,19,0,0,0,7.23,4.45,24.1,24.1,0,0,0,4,.91c.68.1,1.37.15,2.06.23s1.39,0,2.08,0a22.2,22.2,0,0,0,4.08-.37,18.9,18.9,0,0,0,10.88-6l.18.08a15.36,15.36,0,0,1-6.41,6.19,19.81,19.81,0,0,1-8.72,2.08,21.58,21.58,0,0,1-8.79-1.73,15.06,15.06,0,0,1-6.76-5.79Z" fill="#333"/>
    <g opacity="0.52">
      <path d="M318.79,73.85A54.79,54.79,0,0,1,346.62,47.9c1.76-.73,1-3.63-.8-2.89A57.86,57.86,0,0,0,316.2,72.34c-.87,1.71,1.71,3.23,2.59,1.51Z" fill="#fff"/>
    </g>
    <ellipse cx="392.01" cy="396.66" rx="172.7" ry="172.85" fill="#fff"/>
    <g>
      <path d="M308.47,347A98.31,98.31,0,0,1,324,327l-50.78-55.78a174.15,174.15,0,0,0-32.24,42L308.47,347Z" fill="#60bb49"/>
      <path d="M433,307.58A97.11,97.11,0,0,1,454.25,321l50.92-55.69A173.18,173.18,0,0,0,460,237.05L433,307.58Z" fill="#dfb342"/>
      <path d="M549.58,324.36l-67.5,33.7A96.62,96.62,0,0,1,488.84,382l75.08-7.1a171.79,171.79,0,0,0-14.34-50.49" fill="#c62539"/>
      <path d="M477.24,348.29l67.48-33.7a173.75,173.75,0,0,0-31.53-41.94l-50.92,55.68a97.91,97.91,0,0,1,15,20" fill="#4ea548"/>
      <path d="M295.06,396.33c0-1.52.05-3,.12-4.55l-75.1-6.73c-.23,3.73-.38,7.49-.38,11.28a173.85,173.85,0,0,0,5.11,41.85l72.53-20.84a98.29,98.29,0,0,1-2.28-21" fill="#3f814d"/>
      <path d="M467.79,458.16a98.87,98.87,0,0,1-18.31,17.26l39.64,64.31A174.25,174.25,0,0,0,528,503.61l-60.16-45.45Z" fill="#fcc12c"/>
      <path d="M489.89,396.33a97.24,97.24,0,0,1-2.23,20.76L560.18,438a173.15,173.15,0,0,0,5.07-41.63c0-3.56-.12-7.1-.34-10.62l-75.09,7.11c0,1.17.07,2.34.07,3.51" fill="#f04f3a"/>
      <path d="M318.38,459.6l-60,45.7a174.41,174.41,0,0,0,39.2,35.57l39.64-64.24a98.22,98.22,0,0,1-18.81-17" fill="#f99d3a"/>
      <path d="M296.28,380.93a96.46,96.46,0,0,1,7.19-24.24L236,323a172.39,172.39,0,0,0-14.89,51.16l75.17,6.75Z" fill="#0b98d5"/>
      <path d="M479.9,545.55l-39.59-64.23a96.62,96.62,0,0,1-23.11,9.41l14,74.29a171.34,171.34,0,0,0,48.72-19.47" fill="#9f1d49"/>
      <path d="M484.77,427.61a98,98,0,0,1-10.54,21.74l60.21,45.5a172.49,172.49,0,0,0,22.79-46.38l-72.46-20.86Z" fill="#10c0e1"/>
      <path d="M406.52,492.9a96.76,96.76,0,0,1-25.38.35l-14,74.29a173.49,173.49,0,0,0,53.31-.41l-14-74.23Z" fill="#f3723b"/>
      <path d="M398.74,298.94a96.46,96.46,0,0,1,24.1,4.66l27.09-70.51a171.41,171.41,0,0,0-51.19-9.71v75.56Z" fill="#ee3147"/>
      <path d="M370.4,491.39a96.37,96.37,0,0,1-23.91-9.06L306.82,546.6a171.89,171.89,0,0,0,49.63,19l13.95-74.22Z" fill="#e02470"/>
      <path d="M363.86,303.26a96.21,96.21,0,0,1,24.61-4.39V223.32a172.07,172.07,0,0,0-51.88,9.47l27.27,70.47Z" fill="#144d6c"/>
      <path d="M311.77,450.92a97.14,97.14,0,0,1-11.49-23.07L227.8,448.68a172.67,172.67,0,0,0,23.94,47.94l60-45.7Z" fill="#c1953a"/>
      <path d="M332.12,319.79A97.65,97.65,0,0,1,353,307.13L325.75,236.7A172.46,172.46,0,0,0,281.3,264l50.82,55.82Z" fill="#0a6e9f"/>
    </g>
    <text transform="translate(326.57 421.79)" font-size="76.9" fill="#333" font-family="BebasNeue-Regular, Bebas Neue">SDG’s</text>
  </g>
</svg>
