<svg id="Layer_1" data-name="Layer 1" xmlns="http://www.w3.org/2000/svg" viewBox="0 0 842 595"><defs><style>.cls-1{fill:#d8411e;}.cls-2{fill:#1eb5d8;}.cls-3{fill:#bee86e;}.cls-4{fill:#fff;}.cls-5{font-size:67.65px;font-family:BebasNeue-Regular, Bebas Neue;}.cls-5,.cls-8{fill:#333;}.cls-6{letter-spacing:-0.05em;}.cls-7{letter-spacing:0em;}.cls-9{opacity:0.52;}</style></defs><title>FinalChallenge18LogoClimateAction</title><path class="cls-1" d="M502.64,211.14c84.47,3,86-58.53,78.33-69.65-26.11,25.19-84.65,32.9-84.65,32.9h0a97.13,97.13,0,1,0-160.11,0s-60.84-7.71-86.95-32.9c-7.68,11.12-6.14,72.62,78.32,69.65-26.11,8.89-59.12,22.23-60.66,88.17,53-33.34,92.91-71.13,148.2-71.13s99,38.53,152,71.87C565.61,234.11,528.75,220,502.64,211.14Z"/><ellipse class="cls-2" cx="415.88" cy="401.56" rx="182.75" ry="173.38"/><path class="cls-3" d="M552.74,443.72c-6.19,1.49-13.12,25.82-2.46,17.66,4.62-3.55,11.47-19.5,8.19-21.08S554.92,443.19,552.74,443.72Z"/><path class="cls-3" d="M301.14,353.34c10.66.79-6.55,7.91-6,6.85S298.42,353.14,301.14,353.34Z"/><path class="cls-3" d="M310.43,352.29s-2.73,1.58-2.18,2.11,3.27,0,3.27-.53S312.07,351.76,310.43,352.29Z"/><path class="cls-3" d="M289.67,360.72s-3.82,1-2.73,2.11S290.22,362.3,289.67,360.72Z"/><path class="cls-3" d="M290.76,358.09c4.65,1.31,5-3.94,3.28-4.22-11.2-1.84-17.75,5.53-15.3,5.27,2.24-.24,6.56-2.64,7.11-2.64S290.49,354.66,290.76,358.09Z"/><path class="cls-3" d="M358.24,371c-9.4-2.24-50.81-7.91-69.66,10.27-2.25,2.18-1.64,6.33-3.28,4.22s-4.92,0-6.56,1.58c-1.63-1.05,1.64-13.17-.54-13.7s-5.47,4.21-6,2.63,6-11.59,4.92-12.64S263.43,377.05,264,373.9c3.55-19.77,25.13-32.68,24.59-30s0,8.43,1.09,7.38,3.28-6.86,3.28-11.07c2.18-1.58,14.13-20.68,31.14-29.51,3.55-1.85,17.76-5,18-8.44.06-.74-12,1.06-10.38,0s17.76-6.06,16.39-7.37c-31.6-30.49-66.93-4-79.86,3.75a170.57,170.57,0,0,0-16.75,27.61c1.08,1,4.82,9.22,4.28,10.8s-7.3,11.35-7.92,12.91c-2.74,6.85-.28,27.66,1.36,26.08s2.19-15.28,2.73-13.17S254,374.15,253.61,376c-1.36,6.06,18,6.85,17.49,7.91-3,6.06,6,7.9,7.1,6.85s2.73-4.74,4.37-3.69c0,0-9,18.71-.55,38.47,2.38,5.55,23.22,21.34,26.77,24.77,2.95,2.84,7.65,31.62,7.65,33.73a64.09,64.09,0,0,0,6,23.18c4.92,10,14.21,15.29,21.31,13.18,4.21-1.25-7.59-25.95-4.37-31.09,2.6-4.16,20.76-33.73,24-36.89S402.49,381.54,358.24,371Z"/><path class="cls-3" d="M438.28,273.24c-1.32-.95.54-4.74,3.27-4.22s4.38,2.11,2.19,3.17S440.46,274.82,438.28,273.24Z"/><path class="cls-3" d="M448.66,271.13c-1.92.79-2.19,3.69-1.1,3.69s13.12-1.05,9.29-3.16-7.65-3.16-8.19-3.69,0-2.11-2.19-1.58c-1.09-.53-3.28-2.64-3.28-.53s.28,3.43,4.92,4.22C448.87,270.21,449.37,270.84,448.66,271.13Z"/><path class="cls-3" d="M450.84,293.79c-32,1.85-19.13,39.57-14.75,48.49,2.46,5,4.1,16.6,36.61,17.91,2.81.12,23.74,35.06,22.94,55.86-.27,7.12-10.11,61.4,12.57,52.7,2-.78,31.94-9,35.51-29,1.37-7.64,2.46-23.45,17.48-37.94,4.1-4,.82-19.77-10.38-24.77-4.22-1.89-20.06-49.68-27.31-56.92C507.93,304.6,493.7,291.32,450.84,293.79Z"/><path class="cls-3" d="M526.78,263.75c-2.17-1.59-13.11-2.1-15.84-2.1s-6-1.06-7.65-.53-3.82,3.16-4.37,4.22-8.74.52-10.38.52-3.82,3.69-4.37,4.75-14.75.52-15.3-.53c-.54-2.64-1.09-3.16-3.28-3.16s1.31,1.8,1.1,3.69c-.28,2.37-17.76,5-16.94,6.85,2.59,5.83,6.56,3.69,6.56,5.27s-11.75-2.38-12.57,1c-1.72,7.21,6,8.43,8.74,8.43,6,0,12.84-2.9,12-9-.14-1,5.74.79,10.38-.52,0,3.69,12,9,12,10s-2.18,0-3.82,0,2.73,2.63,4.91,3.16,1.1-4.21,1.1-5.27,1.09,1.06,2.18,0-12-6.85-12.56-8.43,10.38,4.74,12,5.8a2.84,2.84,0,0,1,1.63,2.63c0,.53,8.2,7.38,9.29,6.33s-2.73-3.69-2.73-4.75,8.47,2.37,6-1.58c-.63-1,.55-3.69,1.64-4.74s5.74,10.27,7.1,1.58c.12-.74,11.47,9,11.47,11.07s-9-7.65-20.21-4.22c-2.66.81,4.6,4.45,14.2,9.49s-1.55,11.61-1.55,11.61a72.64,72.64,0,0,1,5.15,5.54c3-.23,23.18,32.38,23.72,35.54-.54,6.86,1.93,14.36,4.37,14.23,25.41-1.31,2.73-30,1.64-31.09s-7.38-14.19-6-13.17c25.95,19.23,50,82.63,51.66,86.17C601.36,368.89,587.7,308.29,526.78,263.75Z"/><path class="cls-3" d="M502.15,262.82s-12.52-3.28-10.33-3.28,10.92,3.16,9.29.53-17.49-7.21-20.22-7.38c-20.49-1.32-19.94,3.42-22.95,9-.8,1.47,3.28,5.27,6,4.21s2.74-1.58,5.47.53,4.91,3.16,6.55,1.58,2.46-3.42-1.09-4.74C481.71,264.55,503,270.87,502.15,262.82Z"/><path class="cls-3" d="M276.73,498.07c.38-.59,3.4-2.65,2.26,1.33C277.92,503.16,274.56,501.4,276.73,498.07Z"/><rect class="cls-4" x="222.9" y="308.83" width="394.9" height="188.65"/><text class="cls-5" transform="translate(332.52 384) scale(0.98 1)">CLim<tspan class="cls-6" x="98.57" y="0">a</tspan><tspan x="122.59" y="0">te</tspan><tspan class="cls-7" x="12.65" y="81.19">A</tspan><tspan x="39.65" y="81.19">ction</tspan></text><ellipse class="cls-4" cx="387.47" cy="105" rx="17.66" ry="17.6"/><ellipse class="cls-8" cx="387.08" cy="105.56" rx="12.67" ry="12.97"/><ellipse class="cls-4" cx="384.39" cy="102.78" rx="4.61" ry="4.26"/><ellipse class="cls-4" cx="393.22" cy="109.82" rx="2.61" ry="2.48" transform="translate(86.25 378.99) rotate(-56.85)"/><ellipse class="cls-4" cx="440.45" cy="105" rx="17.66" ry="17.6"/><ellipse class="cls-8" cx="440.06" cy="105.56" rx="12.67" ry="12.97"/><ellipse class="cls-4" cx="437.38" cy="102.78" rx="4.61" ry="4.26"/><ellipse class="cls-4" cx="446.21" cy="109.82" rx="2.61" ry="2.48" transform="translate(110.26 423.35) rotate(-56.85)"/><path class="cls-8" d="M400.61,140a19,19,0,0,0,7.27,4.46,23.42,23.42,0,0,0,4,.93c.68.09,1.37.15,2.06.22s1.4,0,2.1,0a21.67,21.67,0,0,0,4.11-.37,18.88,18.88,0,0,0,3.95-1.11,19.22,19.22,0,0,0,7-4.9l.18.08a15.35,15.35,0,0,1-6.46,6.21,19.58,19.58,0,0,1-8.76,2.09,21.71,21.71,0,0,1-8.86-1.73,15.19,15.19,0,0,1-6.81-5.82Z"/><g class="cls-9"><path class="cls-4" d="M343.29,76.15a55,55,0,0,1,28-26.07c1.76-.73,1-3.63-.8-2.9A58.15,58.15,0,0,0,340.7,74.64c-.88,1.71,1.71,3.23,2.59,1.51Z"/></g></svg>